<svg height="511pt" viewBox="0 -88 511.91604 511" width="511pt" xmlns="http://www.w3.org/2000/svg"><path d="m120.414062 297.507812 37.515626-37.425781 139.035156-139.125h.085937c.089844-.175781.265625-.265625.355469-.351562 13.066406-13.160157 20.371094-30.976563 20.304688-49.523438.003906-29.15625-17.914063-55.316406-45.097657-65.851562-27.1875-10.535157-58.054687-3.277344-77.695312 18.269531-.089844.167969-.210938.320312-.355469.441406h-.085938l-136.476562 136.386719-37.425781 37.339844.085937.089843c-17.816406 17.820313-24.777344 43.789063-18.253906 68.132813 6.519531 24.339844 25.535156 43.351563 49.875 49.875s50.3125-.4375 68.132812-18.257813zm-85.1875-49.875c0-19.5 15.808594-35.308593 35.308594-35.308593 19.503906 0 35.3125 15.808593 35.3125 35.308593 0 19.503907-15.808594 35.3125-35.3125 35.3125-9.363281 0-18.347656-3.71875-24.96875-10.339843-6.625-6.625-10.34375-15.605469-10.339844-24.972657zm0 0"/><path d="m88.191406 247.632812c0 9.75-7.902344 17.65625-17.65625 17.65625-9.75 0-17.652344-7.90625-17.652344-17.65625s7.902344-17.652343 17.652344-17.652343c9.753906 0 17.65625 7.902343 17.65625 17.652343zm0 0"/><path d="m503.089844 106.390625h-175.050782c-2.734374 6.273437-6.199218 12.203125-10.328124 17.65625-2.1875 2.851563-4.546876 5.5625-7.0625 8.121094-.179688.175781-.265626.355469-.441407.53125-.265625.265625-.441406.527343-.707031.792969l-177.257812 177.257812c-.417969.410156-.863282.792969-1.324219 1.148438-2.375 2.261718-4.882813 4.386718-7.503907 6.355468-15.226562 11.503906-33.796874 17.703125-52.878906 17.65625h220.691406c4.875 0 8.828126-3.953125 8.828126-8.828125s-3.953126-8.828125-8.828126-8.828125h-13.949218l17.65625-17.65625h31.601562c4.875 0 8.828125-3.949218 8.828125-8.824218 0-4.878907-3.953125-8.828126-8.828125-8.828126h-13.945312l17.65625-17.65625h31.601562c4.875 0 8.828125-3.953124 8.828125-8.828124s-3.953125-8.828126-8.828125-8.828126h-13.949218l17.65625-17.652343h31.601562c4.875 0 8.828125-3.953125 8.828125-8.828125s-3.953125-8.828125-8.828125-8.828125h-13.945312l17.652343-17.65625h31.605469c4.875 0 8.828125-3.953125 8.828125-8.828125s-3.953125-8.828125-8.828125-8.828125h-13.949219l17.65625-17.652344h31.601563c4.875 0 8.828125-3.953125 8.828125-8.828125s-3.953125-8.828125-8.828125-8.828125h-13.945313l17.652344-17.65625h31.605469c4.875 0 8.828125-3.953125 8.828125-8.828125s-3.953125-8.828125-8.828125-8.828125zm0 0"/></svg>