<svg id="Layer_1" data-name="Layer 1" xmlns="http://www.w3.org/2000/svg" viewBox="0 0 381 159.91"><defs><style>.cls-1{fill:#2a78ea;}.cls-2,.cls-3,.cls-6{fill:#fff;}.cls-3{font-size:140px;}.cls-3,.cls-6{font-family:AgencyFB-Reg, Agency FB;}.cls-4,.cls-5{fill:none;}.cls-5{stroke:#fff;stroke-miterlimit:10;}.cls-6{font-size:48px;}</style></defs><rect class="cls-1" x="0.5" y="0.5" width="380" height="158" rx="11.5"/><path class="cls-2" d="M434,57a11,11,0,0,1,11,11V203a11,11,0,0,1-11,11H77a11,11,0,0,1-11-11V68A11,11,0,0,1,77,57H434m0-1H77A12,12,0,0,0,65,68V203a12,12,0,0,0,12,12H434a12,12,0,0,0,12-12V68a12,12,0,0,0-12-12Z" transform="translate(-65 -56)"/><text class="cls-3" transform="translate(18.76 131.88)">S&amp;J</text><line class="cls-4" x1="195" y1="132" x2="195" y2="25"/><line class="cls-5" x1="207.5" y1="25" x2="207.5" y2="132"/><text class="cls-6" transform="translate(222.94 90.92)">cleaning<tspan x="0" y="42">company</tspan></text></svg>